<?xml version="1.0" encoding="UTF-8"?>
<!DOCTYPE svg PUBLIC "-//W3C//DTD SVG 1.1//EN" "http://www.w3.org/Graphics/SVG/1.1/DTD/svg11.dtd">
<!-- Creator: CorelDRAW 2019 (64-Bit) -->
<svg xmlns="http://www.w3.org/2000/svg" xml:space="preserve" width="25.8826mm" height="3.7084mm" version="1.1" style="shape-rendering:geometricPrecision; text-rendering:geometricPrecision; image-rendering:optimizeQuality; fill-rule:evenodd; clip-rule:evenodd"
viewBox="0 0 122.83 17.6"
 xmlns:xlink="http://www.w3.org/1999/xlink"
 xmlns:xodm="http://www.corel.com/coreldraw/odm/2003">
 <defs>
  <style type="text/css">
   <![CDATA[
    .fil2 {fill:none}
    .fil1 {fill:#E6E7E8;fill-rule:nonzero}
    .fil0 {fill:#D2AE6D;fill-rule:nonzero}
   ]]>
  </style>
 </defs>
 <g id="Layer_x0020_1">
  <metadata id="CorelCorpID_0Corel-Layer"/>
  <path class="fil0" d="M13.37 8.47c0,1.19 -0.3,2.3 -0.89,3.33 -0.59,1.03 -1.4,1.83 -2.42,2.42 -1.02,0.59 -2.13,0.89 -3.32,0.89 -1.2,0 -2.32,-0.3 -3.34,-0.89 -1.03,-0.59 -1.84,-1.4 -2.43,-2.42 -0.6,-1.03 -0.89,-2.13 -0.89,-3.33l0 -6.65 3.31 0 0 6.65c0,0.91 0.33,1.69 0.98,2.34 0.65,0.65 1.44,0.97 2.37,0.97 0.92,0 1.71,-0.32 2.37,-0.97 0.65,-0.65 0.98,-1.43 0.98,-2.34l0 -6.65 3.29 0 0 6.65z"/>
  <polygon class="fil1" points="121.59,10.12 111.62,10.12 111.62,11.78 121.59,11.78 121.59,15.1 111.62,15.1 108.29,15.1 108.29,11.78 108.29,10.12 108.29,6.79 108.29,5.14 108.29,1.81 111.62,1.81 121.59,1.81 121.59,5.14 111.62,5.14 111.62,6.79 121.59,6.79 "/>
  <path class="fil1" d="M101.27 15.1c-1.2,0 -2.32,-0.3 -3.34,-0.89 -1.03,-0.59 -1.84,-1.4 -2.43,-2.42 -0.6,-1.03 -0.89,-2.14 -0.89,-3.34 0,-1.2 0.3,-2.31 0.89,-3.34 0.6,-1.03 1.41,-1.83 2.43,-2.42 1.03,-0.59 2.14,-0.89 3.34,-0.89l6.64 0 0 3.31 -6.64 0c-0.92,0 -1.71,0.33 -2.36,0.98 -0.65,0.65 -0.97,1.44 -0.97,2.37 0,0.93 0.32,1.71 0.97,2.36 0.65,0.65 1.43,0.97 2.36,0.97l3.31 0 0 -1.67 -3.31 0 0 -3.33 6.62 0 0.02 0 0 5 0 1.66 0 1.66 -6.64 0z"/>
  <polygon class="fil1" points="84.32,7.5 84.32,15.1 80.99,15.1 80.99,1.81 83.35,1.81 90.96,9.44 90.96,1.81 94.29,1.81 94.29,15.1 91.95,15.1 "/>
  <path class="fil1" d="M67.29 8.47c0,-1.2 0.3,-2.32 0.89,-3.34 0.6,-1.02 1.4,-1.83 2.42,-2.42 1.02,-0.6 2.13,-0.89 3.34,-0.89 1.19,0 2.3,0.3 3.33,0.89 1.03,0.6 1.83,1.4 2.42,2.42 0.59,1.02 0.89,2.13 0.89,3.34l0 6.66 -3.29 0 0 -5 -6.69 0 0 5 -3.31 0 0 -6.66zm9.55 -1.67c-0.29,-0.5 -0.69,-0.9 -1.2,-1.2 -0.51,-0.3 -1.08,-0.44 -1.69,-0.44 -0.61,0 -1.18,0.15 -1.69,0.44 -0.51,0.3 -0.91,0.69 -1.2,1.2l5.79 0z"/>
  <polygon class="fil1" points="63.57,10.12 56.94,10.12 56.94,15.1 53.61,15.1 53.61,10.12 53.61,6.79 53.61,1.81 56.94,1.81 56.94,6.79 63.57,6.79 63.57,1.81 66.9,1.81 66.9,15.1 63.57,15.1 "/>
  <path class="fil1" d="M46.61 15.1c-1.2,0 -2.32,-0.3 -3.34,-0.89 -1.02,-0.59 -1.83,-1.4 -2.42,-2.42 -0.6,-1.03 -0.89,-2.14 -0.89,-3.34 0,-1.2 0.3,-2.31 0.89,-3.34 0.6,-1.03 1.4,-1.83 2.42,-2.42 1.02,-0.59 2.13,-0.89 3.34,-0.89l6.64 0 0 3.31 -6.64 0c-0.93,0 -1.71,0.33 -2.36,0.98 -0.65,0.65 -0.97,1.44 -0.97,2.37 0,0.91 0.32,1.7 0.97,2.35 0.65,0.65 1.43,0.98 2.36,0.98l6.64 0 0 3.31 -6.64 0z"/>
  <polygon class="fil1" points="32.39,4.45 34.06,6.12 35.72,4.45 38.35,1.81 40.7,1.81 40.7,4.17 36.41,8.47 40.7,12.76 40.7,15.1 38.35,15.1 35.72,12.48 34.06,10.81 32.39,12.48 29.75,15.1 27.41,15.1 27.41,12.76 31.71,8.47 27.41,4.17 27.41,1.81 29.75,1.81 "/>
  <polygon class="fil1" points="27.09,10.12 17.12,10.12 17.12,11.78 27.09,11.78 27.09,15.1 17.12,15.1 13.79,15.1 13.79,11.78 13.79,10.12 13.79,6.79 13.79,5.14 13.79,1.81 17.12,1.81 27.09,1.81 27.09,5.14 17.12,5.14 17.12,6.79 27.09,6.79 "/>
  <rect class="fil2" width="122.83" height="17.6"/>
 </g>
</svg>
