<?xml version="1.0" encoding="UTF-8"?>
<!DOCTYPE svg PUBLIC "-//W3C//DTD SVG 1.1//EN" "http://www.w3.org/Graphics/SVG/1.1/DTD/svg11.dtd">
<!-- Creator: CorelDRAW 2019 (64-Bit) -->
<svg xmlns="http://www.w3.org/2000/svg" xml:space="preserve" width="25.8826mm" height="3.7084mm" version="1.1" style="shape-rendering:geometricPrecision; text-rendering:geometricPrecision; image-rendering:optimizeQuality; fill-rule:evenodd; clip-rule:evenodd"
viewBox="0 0 122.83 17.6"
 xmlns:xlink="http://www.w3.org/1999/xlink"
 xmlns:xodm="http://www.corel.com/coreldraw/odm/2003">
 <defs>
  <style type="text/css">
   <![CDATA[
    .fil2 {fill:none}
    .fil1 {fill:#373435;fill-rule:nonzero}
    .fil0 {fill:#D2AE6D;fill-rule:nonzero}
   ]]>
  </style>
 </defs>
 <g id="Layer_x0020_1">
  <metadata id="CorelCorpID_0Corel-Layer"/>
  <path class="fil0" d="M13.37 8.88c0,1.19 -0.3,2.3 -0.89,3.33 -0.59,1.03 -1.4,1.83 -2.42,2.42 -1.02,0.59 -2.13,0.89 -3.32,0.89 -1.2,0 -2.32,-0.3 -3.34,-0.89 -1.03,-0.59 -1.84,-1.4 -2.43,-2.42 -0.6,-1.03 -0.89,-2.13 -0.89,-3.33l0 -6.65 3.31 0 0 6.65c0,0.91 0.33,1.69 0.98,2.34 0.65,0.65 1.44,0.97 2.37,0.97 0.92,0 1.71,-0.32 2.37,-0.97 0.65,-0.65 0.98,-1.43 0.98,-2.34l0 -6.65 3.29 0 0 6.65z"/>
  <polygon class="fil1" points="121.59,10.53 111.62,10.53 111.62,12.19 121.59,12.19 121.59,15.52 111.62,15.52 108.29,15.52 108.29,12.19 108.29,10.53 108.29,7.21 108.29,5.55 108.29,2.22 111.62,2.22 121.59,2.22 121.59,5.55 111.62,5.55 111.62,7.21 121.59,7.21 "/>
  <path class="fil1" d="M101.27 15.52c-1.2,0 -2.32,-0.3 -3.34,-0.89 -1.03,-0.59 -1.84,-1.4 -2.43,-2.42 -0.6,-1.03 -0.89,-2.14 -0.89,-3.34 0,-1.2 0.3,-2.31 0.89,-3.34 0.6,-1.03 1.41,-1.83 2.43,-2.42 1.03,-0.59 2.14,-0.89 3.34,-0.89l6.64 0 0 3.31 -6.64 0c-0.92,0 -1.71,0.33 -2.36,0.98 -0.65,0.65 -0.97,1.44 -0.97,2.37 0,0.93 0.32,1.71 0.97,2.36 0.65,0.65 1.43,0.97 2.36,0.97l3.31 0 0 -1.67 -3.31 0 0 -3.33 6.62 0 0.02 0 0 5 0 1.66 0 1.66 -6.64 0z"/>
  <polygon class="fil1" points="84.32,7.91 84.32,15.52 80.99,15.52 80.99,2.22 83.35,2.22 90.96,9.85 90.96,2.22 94.29,2.22 94.29,15.52 91.95,15.52 "/>
  <path class="fil1" d="M67.29 8.88c0,-1.2 0.3,-2.32 0.89,-3.34 0.6,-1.02 1.4,-1.83 2.42,-2.42 1.02,-0.6 2.13,-0.89 3.34,-0.89 1.19,0 2.3,0.3 3.33,0.89 1.03,0.6 1.83,1.4 2.42,2.42 0.59,1.02 0.89,2.13 0.89,3.34l0 6.66 -3.29 0 0 -5 -6.69 0 0 5 -3.31 0 0 -6.66zm9.55 -1.67c-0.29,-0.5 -0.69,-0.9 -1.2,-1.2 -0.51,-0.3 -1.08,-0.44 -1.69,-0.44 -0.61,0 -1.18,0.15 -1.69,0.44 -0.51,0.3 -0.91,0.69 -1.2,1.2l5.79 0z"/>
  <polygon class="fil1" points="63.57,10.53 56.94,10.53 56.94,15.52 53.61,15.52 53.61,10.53 53.61,7.21 53.61,2.22 56.94,2.22 56.94,7.21 63.57,7.21 63.57,2.22 66.9,2.22 66.9,15.52 63.57,15.52 "/>
  <path class="fil1" d="M46.61 15.52c-1.2,0 -2.32,-0.3 -3.34,-0.89 -1.02,-0.59 -1.83,-1.4 -2.42,-2.42 -0.6,-1.03 -0.89,-2.14 -0.89,-3.34 0,-1.2 0.3,-2.31 0.89,-3.34 0.6,-1.03 1.4,-1.83 2.42,-2.42 1.02,-0.59 2.13,-0.89 3.34,-0.89l6.64 0 0 3.31 -6.64 0c-0.93,0 -1.71,0.33 -2.36,0.98 -0.65,0.65 -0.97,1.44 -0.97,2.37 0,0.91 0.32,1.7 0.97,2.35 0.65,0.65 1.43,0.98 2.36,0.98l6.64 0 0 3.31 -6.64 0z"/>
  <polygon class="fil1" points="32.39,4.86 34.06,6.54 35.72,4.86 38.35,2.22 40.7,2.22 40.7,4.58 36.41,8.88 40.7,13.18 40.7,15.52 38.35,15.52 35.72,12.89 34.06,11.22 32.39,12.89 29.75,15.52 27.41,15.52 27.41,13.18 31.71,8.88 27.41,4.58 27.41,2.22 29.75,2.22 "/>
  <polygon class="fil1" points="27.09,10.53 17.12,10.53 17.12,12.19 27.09,12.19 27.09,15.52 17.12,15.52 13.79,15.52 13.79,12.19 13.79,10.53 13.79,7.21 13.79,5.55 13.79,2.22 17.12,2.22 27.09,2.22 27.09,5.55 17.12,5.55 17.12,7.21 27.09,7.21 "/>
  <rect class="fil2" width="122.83" height="17.6"/>
 </g>
</svg>
